<svg xmlns="http://www.w3.org/2000/svg" viewBox="0 0 192 192"><path d="M46.6 124.2c20.2-2.1 35.1-12.8 49.6-24.1l57.1-44.6c3.2-2.1 5.7-4.6 8.2-7.8 3.5-5 1.4-9.9-2.8-11-6-1.1-22-2.5-29.4 2.1l-1.1.7-20.9 18.4c-18.1-12.7-55-20.5-56.8-14.2-1.1 3.2 6.4 6.4 7.1 7.1 0 0 27.6 18.8 30.1 20.9l.4.4c.4.4 1.1 2.1 1.8 3.2.4.7 0 1.1-.4 1.4L64.7 98.3c-6.4 5-14.2 7.4-22 6.7l-13.1-1c-2.8-.4-5.7.7-7.8 2.5-2.1 1.8-2.5 5.3-.7 7.4.4.4 1.1.7 1.4 1.1l13.5 7c3.2 1.8 7.1 2.5 10.6 2.2zm72 1.7l-7.8 1.8-5.3-6.4-.7-.7c-.4 0-.7.4-.7.7l-.7 8.2-7.4 3.2c-.4 0-.4.4-.4.4 0 .4 0 .7.4.7l7.4 3.2.7 8.2.4.4c.4.4.7.4 1.1 0l5.3-6 7.8 2.1h.4c.4-.4.4-.7.4-1.1l-4.3-7.1 4.3-6.7v-.4c-.2-.5-.6-.5-.9-.5zm53.1-32.6l-6.7-4.6.4-8.2v-.4c0-.4-.4-.4-.7 0l-6.4 5-7.4-3.2c-.4 0-.7.4-1.1.7l2.8 7.4-5.3 6v.4c0 .4.4.7.7.7h8.2l4.3 7.1.4.4c.4 0 .7 0 .7-.4l2.1-7.8 7.8-1.8.4-.4c.2-.1.2-.5-.2-.9zm-86.4 47.9l-8.2-.7-3.2-7.4c0-.4-.4-.4 0-.7-.4 0-.7.4-.7.7l-3.2 7.4-8.2.7h-.4c-.4.4-.4.7 0 1.1l6 5.3-1.8 7.8v.4c.4.4.7.4 1.1.4l7.1-4.3 7.1 4.3h.4c.4 0 .4-.4.4-.7l-1.8-7.8 6-5.3v-.4c.1-.5-.3-.8-.6-.8zm-36.5 1l-7.8-1.8-2.1-7.8c-.4 0-.4 0-.7-.4 0 0-.4 0-.7.4l-4.3 7.1-8.2-.4h-.4c-.4.4-.4.7 0 1.1l5.3 6-2.8 7.4v.4c0 .4.4.4.7.4l7.4-3.2 6.4 5h.4c.4 0 .7-.4.7-.7l-.7-8.2 6.7-4.3c.4 0 .4-.4.4-.4.4-.2 0-.6-.3-.6zm94.9-31.5l3.5-7.1v-.4c0-.4-.4-.4-.7-.4l-7.8 2.5-6-5.7c-.4-.4-.7-.4-1.1-.4-.4.4-.4.7-.4 1.1v7.8l-7.1 3.5-.4.4c0 .4 0 .7.4.7l7.8 2.5 1.4 8.2.4.4c0 .4.4.4.7 0l5.3-6.7 8.2 1.4h.4c.4-.4.4-.7 0-1.1l-4.6-6.7z"/></svg>