<svg version="1.1" id="logo" xmlns="http://www.w3.org/2000/svg" x="0" y="0" viewBox="0 0 105 48" xml:space="preserve"><style/><path d="M19.3 7.8c0 1.2 0 2.2.1 3h-.8c-.2-1.8-.4-3.2-.7-4.1-.3-.9-.8-1.6-1.5-2-.8-.5-1.9-.7-3.4-.7h-2.3c-.8 0-1.4.1-1.8.2-.4.2-.7.4-.8.8-.2.4-.2 1.1-.2 2v8.9h2.6c.8 0 1.5-.2 1.9-.6s.8-.9.9-1.4.3-1.2.4-2l.1-.7h.8c-.1 1-.1 2.1-.1 3.4v1.7c0 1.2.1 2.9.2 5.1h-.8c0-.2-.1-.8-.2-1.7-.1-1-.4-1.7-1-2.3-.5-.5-1.3-.8-2.3-.8H7.9v8.3c0 .9.1 1.6.3 2 .2.4.5.7 1 .8.5.1 1.3.2 2.3.3v.7c-1.2-.1-3-.1-5.3-.1-2.1 0-3.6 0-4.6.1V28c.9 0 1.5-.1 1.9-.3.4-.1.7-.4.8-.8s.2-1.1.2-2V7c0-.9-.1-1.6-.2-2-.2-.4-.4-.7-.8-.8s-1-.2-1.9-.3v-.7c2.3.1 5.8.1 10.4.1 3.5 0 6 0 7.5-.1-.1 1.7-.2 3.2-.2 4.6zm82.6-4.6v.7c-1.3.3-2.3 1.4-2.8 3.1l-6.8 21.8h-.6l-6.3-18.5-5.7 18.5h-.6L71.5 6.2C71 4.7 70.2 4 69 3.9v-.7c1 .1 2.3.1 3.9.1 1.7 0 3 0 3.9-.1v.7c-.6 0-1.1.2-1.4.4-.3.2-.4.5-.4.9s.1 1 .4 1.8l5.3 16 4.4-13.9-1-2.8C83.6 4.7 82.9 4 82 3.9v-.7c.9.1 2 .1 3.5.1 2.1 0 3.6 0 4.6-.1v.7c-.9 0-1.5.2-1.9.3-.4.2-.5.5-.5 1 0 .4.1 1 .4 1.7l5.2 16L97.6 9c.4-1.2.6-2.1.6-2.9 0-.8-.2-1.4-.7-1.7-.5-.3-1.3-.5-2.3-.5v-.7c1.4.1 2.7.1 4.1.1 1 0 1.9 0 2.6-.1z"/><path d="M47.5 7.3c-5.1-3.6-15.5-5.8-16-4-.3.9 1.8 1.8 2 2 0 0 7.8 5.3 8.5 5.9l.1.1c.1.1.3.6.5.9.1.2 0 .3-.1.4l-7 6.1c-1.8 1.4-4 2.1-6.2 1.9l-3.7-.3c-.8-.1-1.6.2-2.2.7-.6.5-.7 1.5-.2 2.1.1.1.3.2.4.3l3.8 2c.9.5 2 .7 3 .6 5.7-.6 9.9-3.6 14-6.8L60.5 6.6c.9-.6 1.6-1.3 2.3-2.2 1-1.4.4-2.8-.8-3.1-1.7-.3-6.2-.7-8.3.6l-.3.2-5.9 5.2z" fill="#bbb" id="plane"/><path d="M47 25.2l1.5 1.8 2.2-.5c.1 0 .2 0 .2.1v.1l-1.2 1.9 1.2 2c0 .1 0 .2-.1.3h-.1l-2.2-.6L47 32c-.1.1-.2.1-.3 0l-.1-.1-.2-2.3-2.1-.9c-.1 0-.1-.1-.1-.2 0 0 0-.1.1-.1l2.1-.9.2-2.3c0-.1.1-.2.2-.2l.2.2zm12.8-11.1l2.1.9 1.8-1.4c.1-.1.2-.1.2 0v.1l-.1 2.3 1.9 1.3c.1.1.1.2 0 .3l-.1.1-2.2.5-.6 2.2c0 .1-.1.1-.2.1l-.1-.1-1.2-2H59c-.1 0-.2-.1-.2-.2v-.1l1.5-1.7-.8-2.1c.1-.1.2-.2.3-.2zM38.1 28.5l.9 2.1 2.3.2c.1 0 .2.1.2.2v.1l-1.7 1.5.5 2.2c0 .1 0 .2-.1.2h-.1l-2-1.2-2 1.2c-.1 0-.2 0-.3-.1v-.1l.5-2.2-1.7-1.5c-.1-.1-.1-.2 0-.3h.1l2.3-.2.9-2.1c0-.1.1-.2.2-.2-.1.1 0 .1 0 .2zm-9.9-.1l.6 2.2 2.2.5c.1 0 .2.1.1.2 0 0 0 .1-.1.1l-1.9 1.2.2 2.3c0 .1-.1.2-.2.2H29l-1.8-1.4-2.1.9c-.1 0-.2 0-.2-.1v-.1l.8-2.1-1.5-1.7c-.1-.1-.1-.2 0-.3h.1l2.3.1 1.2-2c.1-.1.2-.1.2-.1.1.1.1.1.2.1zm26.5-9.3l1.7 1.6 2.2-.7c.1 0 .2 0 .2.1v.1l-1 2 1.3 1.9c.1.1.1.2 0 .3H59l-2.3-.4-1.5 1.9c-.1.1-.2.1-.2 0l-.1-.1-.4-2.3-2.2-.7c-.1 0-.1-.1-.1-.2l.1-.1 2-1v-2.2c0-.1 0-.2.1-.3.1 0 .2 0 .3.1z"/><path d="M2.6 40.2v2.1h3v.7h-3v3h-.8v-6.6h4.6v.8H2.6zM8.7 46h-.8v-6.6h.8V46zm7.4 0h-1l-2.8-4.4-.7-1.3V46h-.8v-6.6h1l2.8 4.4.7 1.3v-5.8h.8V46zm6.7-5.7c.6.6.9 1.4.9 2.4s-.3 1.9-.9 2.4c-.6.6-1.4.9-2.4.9h-2.1v-6.6h2.1c1 0 1.8.3 2.4.9zm-.6 4.3c.4-.5.6-1.1.6-1.9s-.2-1.4-.6-1.9c-.4-.5-1-.7-1.8-.7H19v5.1h1.4c.8.1 1.4-.2 1.8-.6zm17.7-1.2V46h-.8v-2.6l-2.4-4h.9l1.8 3.2 1.8-3.2h1l-2.3 4zm7.7-3.7c.5.3.8.7 1.1 1.2.3.5.4 1.1.4 1.8s-.1 1.3-.4 1.8-.6.9-1.1 1.2c-.5.3-1 .4-1.6.4-.6 0-1.2-.1-1.6-.4-.5-.3-.8-.7-1.1-1.2s-.4-1.1-.4-1.8.1-1.3.4-1.8c.3-.5.6-.9 1.1-1.2.5-.3 1-.4 1.6-.4.6 0 1.1.1 1.6.4zm-3.3 1.1c-.4.5-.6 1.1-.6 1.9 0 .8.2 1.5.6 1.9.4.5.9.7 1.6.7.7 0 1.2-.2 1.6-.7.4-.5.6-1.1.6-1.9 0-.8-.2-1.5-.6-1.9s-.9-.8-1.6-.8c-.6 0-1.2.3-1.6.8zm11.6 2.7c0 .8-.2 1.5-.7 1.9s-1.1.6-1.9.6c-.8 0-1.5-.2-1.9-.6s-.7-1.1-.7-1.9v-4.1h.8v3.9c0 .7.1 1.2.4 1.5s.7.5 1.4.5c.6 0 1.1-.2 1.4-.5s.4-.8.4-1.5v-3.9h.8v4.1zm4.4-.2h-1.6V46H58v-6.6h2.5c.7 0 1.2.2 1.6.5.4.3.6.8.6 1.4 0 .5-.1.9-.4 1.2-.3.3-.6.5-1.1.7l1.9 2.8h-1l-1.8-2.7zm-1.5-.8h1.7c.9 0 1.4-.4 1.4-1.2s-.5-1.2-1.4-1.2h-1.7v2.4zM81.6 46h-1l-2-6.6h.9l1.6 6 1.6-6h.9l1.6 6 1.6-6h.8L85.7 46h-1l-1.2-4.3-.3-1.5-.3 1.5-1.3 4.3zm10.7-1.8h-3l-.6 1.8h-.8l2.6-6.6h1l2.6 6.6H93l-.7-1.8zm-.2-.8l-.9-2.3-.3-.9-.4.8-.9 2.4h2.5zm4.7 0V46H96v-2.6l-2.4-4h1l1.8 3.2 1.8-3.2h1l-2.4 4z" fill="#6e7478"/></svg>